<?xml version="1.0" encoding="UTF-8"?>
<svg id="Layer_1" data-name="Layer 1" xmlns="http://www.w3.org/2000/svg" viewBox="0 0 478.15 320.69">
  <defs>
    <style>
      .cls-1 {
        fill: #814739;
      }

      .cls-2 {
        fill: #eead9d;
      }

      .cls-3 {
        fill: #eaa795;
      }

      .cls-4 {
        fill: #f4d7d3;
      }
    </style>
  </defs>
  <path class="cls-3" d="M152.3,64.97v2.93c-10.6-.71-19.18,1.21-29.33,2.93l-1.47-2.88-1.47,2.88c-141.97,28.66-122.94,229.73,8.8,240.15v5.86c-32.35-1.28-50.95-2.37-77.67-23.48C-53.82,210.4,14.06,43.22,152.3,64.97Z"/>
  <path class="cls-3" d="M243.22,173.33c10.16.96,8.44.63,17.6,0,11.81-.81,24.51,4.51,20.24,18.56-3.31,10.9-26.11,3.27-26.11,15.12v49.79c0,4.45-16.6,10.51-22.06,1.51-3.37-5.55-1.97-56.24-4.32-58.63l-20.54.02v54.18c0,11.98-23.46,11.93-23.46,2.93v-76.14c0-5.71,21.46-4.9,26.4-4.39,1.14.12,4.19,4.23,9.97,3.13,2.89-.55,1.47-5.8,1.76-6.06.77-.68,17.08-.32,20.53,0Z"/>
  <path class="cls-2" d="M243.22,173.33c-42.27-26.19-11.37-12.91,13.33-14.54,25.98-1.72,58.93-21.02,62.69-48.66,2.6-19.06-.55-58.44-8.35-76.12-9.48-21.48-14.44,13.76-22.64,16.07-3.75,1.06-28.03-8.09-37.58-8.65-14.58-.85-25.98,2.21-39.7,5.96,1.46-5.4-1.06-35.21-7.35-35.09-8.83.17-11.96,49.42-30.78,40.94l22.67-49.02c1.15-6.85,10.05-4,14.21-.96,7.26,5.32,11.59,27.91,13.34,29.13,2.79,1.96,28.53-.43,36.08.58,13.51,1.81,15.93,11.83,28.04-1.74,4.9-5.49,16.62-29.25,18.12-30.17,1.6-.99,8.05-.87,8.28-.53,1.53,2.24,11.89,45.65,13.35,52.61,8.72,41.56,12.97,70.52-23.63,99.63-14.14,11.25-26.59,13.55-42.47,20.55-9.16.63-7.44.96-17.6,0Z"/>
  <path class="cls-3" d="M145.88,174.04c24.61-.92,37.58,9.76,32.71,35.81-1.26,6.72-8.24,10.72-8.71,17.84-.56,8.57,18.24,31.36,4.05,36.08-20.48,6.8-20.75-27-28.99-28.94-11.83-2.78-3.95,23.91-10.03,28-8.39,5.64-15.91.89-18.76-8.01-2.62-8.19-3.94-66.54-1.58-73.78.79-2.42,1.95-3.63,4.39-4.41s22.42-2.43,26.92-2.6ZM154.51,213.63c10.21-10.06-3.75-25.78-14.15-18.54-3.62,2.53-3.67,21.12-2.72,22.17,1.23,1.37,14.23-1.04,16.87-3.63Z"/>
  <path class="cls-3" d="M351.05,254.62c-4.12,4.01-13.19,4.08-17.89.93-5.37-3.6-3.09-14.44-6.64-15.03-3.25-.54-22.99-.29-24.23.6-1.71,1.23-3.76,15.38-11.07,16.75-3.54.66-11.27-3.82-12.46-7.4-2.48-7.5,21.78-79.25,27.97-83.21,11.93-7.63,22.86-2.95,29.01,8.86,5.74,11.01,16.5,54.62,17.63,67.47.33,3.76.6,8.18-2.33,11.03ZM319.47,193.83c-7.8-.86-4.63.16-5.88,4.33-1.17,3.9-6.88,23.94-5.83,24.95h14.67s-2.95-29.28-2.95-29.28Z"/>
  <path class="cls-3" d="M427.99,234.82c.98-.95.57-8.36-2.88-10.28-9.04-5.01-27.71-.63-31.68-18.15-9.6-42.35,50-43.79,54.83-25.23,3.59,13.78-12.65,11.84-20.25,11.13-15.01-1.4-16.73,5.28-1.89,10.74,19.63,7.22,34.81,10.02,26.3,37.17-7.96,25.39-50.5,21.71-53.35,7.42-3.53-17.72,27.62-11.54,28.92-12.81Z"/>
  <path class="cls-1" d="M454.4,290.48c4.37-2,19.06-9.56,20.55-1.4.68,3.7-5.52,6.56-5.4,11.16.21,8.18,10.51,6.86,8.29,12.17-5.47,13.04-32.4,2.07-43.96,7.37l-.04-11.72c-12.27,12.64-24.39,5.81-36.16,6.86-7.95.71-19.58,5.89-26.51,5.08-4.67-.55-8.55-28.32-.34-32.42,7.23-1.36,4.02,5.66,4.36,10.21.24,3.22-.63,12.47.01,13.18,6.49,7.11,8.36-13.62,9.15-14.28,1.16-.95,18.96-1.85,23.09-3.3l2.92,11.72c-3.09-27.81,12.87-11.28,29.35-14.63l7.5,14.73,13.02-.1c1.35-7.85-1.5-10.58-8.75-11.96-.43-1.99,2.81-2.21,2.89-2.67Z"/>
  <path class="cls-1" d="M298.95,308.05c-.64,8.9,3.22,15.01-9.91,11.75-2.1-.52-1.7-5.99-3.47-6.03-8.37-.2-27.57,14.68-30.63-1.32-.82-4.3.71-23.22,3.07-24.82.83-.56,6.8,6.43,7.2-3.04l1.75,5.53,5.57-2.59-.09,8.64c-11.81-.32-12.72,5.52-11.64,16.25,14.13,7.93,15.41-19.73,20.54-23.42,6.13-4.4,36.46-5.08,41.08-1.44.8.64-4.24,13.19-3.06,18.66.2.93,15.15,7.17-1.9,12.99-12.33,4.2-9.54-1.99-9.71-11.16-.06-3.23.59-13.9-.01-14.66-.27-.34-8.47-.29-8.78.02-.51.52.31,10.23,0,14.64Z"/>
  <path class="cls-3" d="M383.29,165.26c9.87,9.82-8.04,38.86-15.38,37.35-9.97-2.06,1.79-13.24,1.26-15.74-1.08-5.15-12.41-5.39-6.66-18.67,3.16-7.28,15.73-7.95,20.77-2.93Z"/>
  <path class="cls-4" d="M304.81,85.49c-3.89,4.55.56,14.1,0,14.6-2.12,1.93-11.89-5.89-14.69-1.44l14.68,7.3c-6.31.35-12.76-.55-19.08,0-6.65.58-23.58,8.16-14.05-5.62,6.92-10.01,21.03-15.35,33.14-14.83Z"/>
  <path class="cls-1" d="M357.6,302.18v17.58c-17.92-1.41-24.56.64-20.46-21.91,3.09-17,21.92-9.92,11.72,5.84l8.74-1.5Z"/>
  <path class="cls-4" d="M234.43,103.02c-6.63-1.06-7.85.78-10.77,5.86l-27.31,1.51,23.4-7.37-20.51-2.93,11.74-7.3-11.74-4.37c13.18-1.59,28.17,2.78,35.19,14.6Z"/>
  <path class="cls-2" d="M251.03,89.03c10.28-1.04,16.17,8.93,9.49,18.12-12.93,17.79-31.82-15.85-9.49-18.12Z"/>
  <path class="cls-1" d="M187.5,302.19c1.47-11.04,5.77-16.51,17.59-14.63,3.47,12.34-9.96,18.5-2.92,29.25-9.32.47-13.42,1.1-14.66-8.76-.21-1.68-.22-4.19,0-5.86Z"/>
  <path class="cls-1" d="M243.21,287.56l-8.78,25-5.87,7.17-.15-23.27-17.44-4.52c8.19-8.25,21.91-3.13,32.24-4.39Z"/>
  <path class="cls-2" d="M439.73,290.48c3.76-.76,17.05-13.13,14.66,0-.08.46-3.32.67-2.89,2.67,7.25,1.39,10.09,4.11,8.75,11.96l-13.02.1-7.5-14.73Z"/>
  <path class="cls-2" d="M161.1,310.98v2.93c-17.54,4.38-15.67,3.58-32.26,2.93v-5.86c8.34.66,24.49,1.19,32.26,0Z"/>
  <path class="cls-4" d="M187.5,302.19c-.22,1.66-.21,4.18,0,5.86-8.81,1.46-17.75,3.7-26.4,5.86v-2.93c6.49-1,18.31-8.58,26.4-8.79Z"/>
  <path class="cls-4" d="M298.95,308.05c.32-4.41-.5-14.11,0-14.64.31-.31,8.51-.37,8.78-.02.6.76-.05,11.43.01,14.66h-8.8Z"/>
  <path class="cls-4" d="M152.3,64.97c3.24.51,17.74.67,17.62,4.39-4.71,5.85-15.52-1.32-17.62-1.46v-2.93Z"/>
  <path class="cls-2" d="M222.69,173.33c-.29.25,1.13,5.5-1.76,6.06-5.78,1.1-8.83-3.01-9.97-3.13l11.73-2.93Z"/>
  <path class="cls-4" d="M122.97,70.83c-.95.16-2-.19-2.93,0l1.47-2.88,1.47,2.88Z"/>
  <path class="cls-4" d="M194.83,100.12c1.9.98,1.9,1.95,0,2.93v-2.93Z"/>
</svg>