<?xml version="1.0" encoding="UTF-8"?>
<svg id="Layer_1" xmlns="http://www.w3.org/2000/svg" version="1.1" viewBox="0 0 1920 1080">
  <!-- Generator: Adobe Illustrator 29.4.0, SVG Export Plug-In . SVG Version: 2.1.0 Build 152)  -->
  <defs>
    <style>
      .st0 {
        fill: #fff;
      }

      .st1 {
        fill: none;
        stroke: #000;
        stroke-miterlimit: 10;
        stroke-width: 6px;
      }
    </style>
  </defs>
  <g>
    <path d="M843.23,385c1.99.47,4.03.42,6.06.76,5.94,1.01,11.56,4.06,16.25,7.73l57.45,57.5c2.56,3.21,4.01,7.01,4.82,11,0,24.99,0,50.01,0,75-1.6,9.98-9.32,17.64-19.47,18.68l-131.88-.02c-10.48-1.31-18.48-9.51-19.17-20.15-1.53-23.52,1.19-48.67,0-72.36.42-4.55,2.13-8.8,5-12.33l57.46-57.48c6.3-5.16,14.12-7.85,22.14-8.34h1.33ZM878.19,541.33h30.14c1.9,0,5.33-3.74,5.16-5.83v-71.68c-.02-1.67-.92-3.12-1.99-4.33-19.59-18.91-37.93-39.33-58.31-57.3-8.24-4.61-17.81-3.41-24.95,2.64l-54.62,54.66c-1.07,1.21-1.97,2.65-2,4.33v71.68c-.15,2.09,3.28,5.83,5.18,5.83h30.14c.96-14.75-2.88-31.53,4.49-45.01,13.22-24.19,48.51-24.44,62.05-.43,7.65,13.57,3.78,30.49,4.73,45.44ZM863.87,541.33v-30.17c0-3-2.9-8.83-4.82-11.17-10.8-13.09-32.24-8.92-36.89,7.42-.22.79-.91,3.14-.91,3.75v30.17h42.63Z"/>
    <path class="st0" d="M841.89,385c-8.02.49-15.84,3.18-22.14,8.34l-57.46,57.48c-2.87,3.53-4.58,7.78-5,12.33,1.19,23.69-1.53,48.85,0,72.36.69,10.64,8.69,18.83,19.17,20.15l131.88.02c10.15-1.03,17.87-8.69,19.47-18.68v19h-170.84v-171h84.92Z"/>
    <path class="st0" d="M843.23,385h84.59v77c-.81-3.99-2.26-7.79-4.82-11l-57.45-57.5c-4.7-3.67-10.31-6.72-16.25-7.73-2.04-.35-4.08-.29-6.06-.76Z"/>
    <path class="st0" d="M878.19,541.33c-.95-14.94,2.93-31.87-4.73-45.44-13.54-24.01-48.83-23.76-62.05.43-7.37,13.48-3.53,30.26-4.49,45.01h-30.14c-1.9,0-5.33-3.74-5.16-5.83v-71.68c.02-1.67.92-3.12,1.99-4.33l54.62-54.66c7.14-6.05,16.71-7.25,24.95-2.64,20.38,17.97,38.72,38.39,58.31,57.3,1.07,1.21,1.97,2.65,2,4.33v71.68c.15,2.09-3.28,5.83-5.18,5.83h-30.14Z"/>
    <path class="st0" d="M863.87,541.33h-42.63v-30.17c0-.61.69-2.97.91-3.75,4.65-16.34,26.09-20.5,36.89-7.42,1.93,2.34,4.82,8.17,4.82,11.17v30.17Z"/>
  </g>
  <g>
    <path d="M793.47,443.46c2.18,5.88,4.59,12.99,7.1,21.09,1.78-8.87,3.49-18.68,5.21-29.18,2.27-1.2,4.58-2.28,6.93-3.24.57,13.99,1.15,27.98,1.72,41.97-1.76,0-3.53.02-5.29.03-.16-3.61-.32-7.22-.48-10.82-.1-6.25-.2-12.54-.3-18.88-1.86,10.74-3.69,20.74-5.6,29.75-1.21,0-2.41.02-3.62.03-2.63-8.41-5.15-15.74-7.4-21.72.27,4.5.55,9.05.83,13.67.07,2.7.14,5.4.21,8.1-1.75.02-3.51.04-5.26.06v-25.59c1.91-1.88,3.89-3.64,5.93-5.28Z"/>
    <path d="M824.66,474.06c-1.76,0-3.52.01-5.28.02-.53-14.61-1.05-29.21-1.58-43.82,1.83-.6,3.68-1.13,5.54-1.6.44,15.13.88,30.26,1.32,45.39Z"/>
    <path d="M849.86,458.28c-.27,5.08-1.36,9.06-3.23,11.99-1.87,2.93-4.28,4.41-7.28,4.41-3.28,0-5.88-2.06-7.85-6.06-1.97-4.01-3.06-9.43-3.22-16.4-.02-.94-.04-1.89-.06-2.83-.1-4.45.26-8.43,1.1-11.97.85-3.54,2.12-6.36,3.82-8.4,1.7-2.04,3.73-3.16,6.04-3.25,3.21-.13,5.79,1.44,7.71,4.48,1.92,3.05,2.98,7.26,3.21,12.56-1.85-.13-3.71-.21-5.56-.25-.12-3.08-.61-5.32-1.45-6.72-.84-1.39-2.14-2.09-3.87-2.03-1.88.07-3.28,1.34-4.18,3.74-.9,2.4-1.32,6.04-1.27,10.93.02,1.19.03,2.38.05,3.57.07,5.1.56,8.81,1.44,11.15.88,2.34,2.23,3.51,4.06,3.49,1.65-.01,2.88-.71,3.7-2.09.82-1.38,1.3-3.52,1.43-6.43,1.81.02,3.62.06,5.42.13Z"/>
    <path d="M863.15,457.72c-1.43-.16-2.86-.3-4.29-.43-.15,5.59-.3,11.17-.45,16.76-1.76,0-3.52-.01-5.28-.01.29-15.61.58-31.22.87-46.83,3.41.51,6.79,1.25,10.11,2.21,3.17.92,5.53,2.99,7.12,5.82,1.58,2.85,2.27,6.21,2.11,10.15-.12,2.81-.6,5.04-1.44,6.76-.84,1.72-2.06,3.03-3.66,3.95,1.64,6.15,3.26,12.06,4.86,17.63,0,.13-.01.26-.02.39-1.89-.01-3.77-.02-5.66-.03-1.4-5.26-2.82-10.74-4.27-16.37ZM859.06,449.66c1.47.18,2.93.39,4.38.62,1.36.22,2.43-.18,3.21-1.18.78-1,1.21-2.48,1.29-4.49.08-2.04-.21-3.74-.88-5.11-.66-1.37-1.73-2.27-3.21-2.63-1.47-.36-2.95-.68-4.44-.96-.12,4.58-.25,9.16-.37,13.74Z"/>
    <path d="M897.12,462.12c0,2.52-.41,4.56-1.29,6.38-.87,1.81-2.15,3.28-3.83,4.4-1.68,1.12-3.61,1.78-5.75,1.79-2.12,0-3.99-.68-5.58-2.21-1.59-1.52-2.78-3.79-3.56-6.78-.78-2.99-1.09-6.46-.94-10.28.03-.65.06-1.31.09-1.96.17-3.91.78-7.22,1.81-9.78,1.03-2.56,2.39-4.16,4.05-4.73,1.66-.58,3.49-.11,5.45,1.31,1.96,1.42,3.63,3.44,5.06,5.8,1.43,2.36,2.52,4.86,3.3,7.42.78,2.57,1.19,4.99,1.19,7.5v1.14ZM892.18,458.76c.08-3.11-.3-5.69-1.13-7.9-.83-2.2-2.05-3.9-3.71-4.9-1.65-.98-2.99-.76-4,.75-1.01,1.5-1.62,4.24-1.8,8.07-.03.6-.05,1.2-.08,1.8-.17,3.77.18,6.8,1.04,8.97.86,2.18,2.19,3.28,3.97,3.48,1.75.19,3.12-.54,4.09-2.03.98-1.51,1.49-3.71,1.58-6.79.01-.48.03-.97.04-1.45Z"/>
  </g>
  <g>
    <path d="M786.61,560.93c2.12,8.09,4.06,17.41,5.92,27.7,2.65-8.14,5.44-17.41,8.27-27.58,2.5.02,5,.03,7.5.05-.65,15.23-1.31,30.46-1.96,45.69-1.94-.82-3.85-1.72-5.74-2.69.18-3.92.36-7.84.54-11.76.5-6.7,1-13.44,1.5-20.23-2.98,10.43-5.93,19.91-8.73,28.17-1.24-.78-2.47-1.6-3.67-2.45-1.93-10.76-3.93-20.46-6.14-28.82.07,5.02.12,10.1.16,15.25-.08,2.93-.15,5.85-.23,8.78-1.67-1.41-3.29-2.9-4.88-4.45v-27.73c2.48.03,4.97.05,7.45.08Z"/>
    <path d="M835.89,588.61c-.04,5.16-.58,9.68-1.64,13.5-1.06,3.82-2.58,6.7-4.55,8.55-1.96,1.86-4.2,2.54-6.68,2.02-2.45-.51-4.6-2.08-6.42-4.56-1.82-2.48-3.17-5.67-4.05-9.48-.88-3.82-1.23-7.96-1.07-12.51.03-.78.06-1.56.09-2.34.18-4.66.85-8.68,1.97-12.18,1.13-3.5,2.63-6.23,4.5-8.17,1.87-1.94,3.95-2.96,6.26-2.96,2.31,0,4.34,1.02,6.11,3.12,1.77,2.09,3.14,5.11,4.1,9.05.96,3.94,1.44,8.48,1.4,13.62,0,.78-.01,1.56-.02,2.34ZM829.89,585.95c.09-5.44-.38-9.6-1.39-12.46-1.01-2.86-2.48-4.29-4.43-4.36-1.94-.07-3.47,1.23-4.61,3.83-1.14,2.61-1.8,6.43-1.99,11.54-.03.8-.05,1.6-.08,2.4-.17,5.03.24,9.03,1.24,12.05,1,3.02,2.53,4.78,4.6,5.15,2.03.36,3.62-.82,4.76-3.49,1.14-2.67,1.75-6.74,1.86-12.13.01-.84.03-1.69.04-2.53Z"/>
    <path d="M859.76,569.57c-2.86.12-5.73.22-8.6.29.23,14.42.46,28.84.69,43.26-2.05.26-4.11.44-6.18.55-.1-14.57-.21-29.14-.31-43.71-2.83.03-5.67.03-8.5,0,.02-2.92.04-5.84.05-8.76,7.54,0,15.07,0,22.61-.03.08,2.8.16,5.6.24,8.4Z"/>
    <path d="M880.58,585.35c-3.63,1.07-7.31,1.99-11.04,2.75.16,4.25.33,8.5.49,12.75,4.41-1.31,8.74-2.93,12.94-4.86.11,2.31.21,4.62.32,6.93-6.04,3.32-12.39,5.89-18.92,7.68-.53-16.49-1.07-32.97-1.6-49.46,6.19-.02,12.37-.06,18.55-.1.11,2.33.21,4.66.32,6.99-4.26.41-8.55.75-12.85,1.03.15,3.78.29,7.56.44,11.35,3.71-.55,7.38-1.22,11.02-1.99.11,2.31.21,4.61.32,6.92Z"/>
    <path d="M891.66,591.47c3.78-2.22,7.42-4.72,10.89-7.48v4.59c-4.94,4.86-10.32,9.02-16.01,12.48-.6-13.34-1.21-26.69-1.81-40.03,1.9-.01,3.81-.03,5.71-.05.41,10.17.82,20.33,1.22,30.5Z"/>
  </g>
  <line class="st1" x1="842" y1="491" x2="843" y2="542"/>
</svg>